<svg xmlns="http://www.w3.org/2000/svg" viewBox="0 0 625.82 831.53"><defs><style>.cls-1{fill:#fff;}</style></defs><g id="Layer_2" data-name="Layer 2"><g id="Layer_1-2" data-name="Layer 1"><path d="M25.07,526.5,552,384.12c1,3.53,1.88,6.82,2.77,10.11Q589.36,522.63,624,651c7.47,27.77-8.11,55.66-35.94,63.34C534.46,729.14,480.79,743.49,427.15,758q-132,35.65-264,71.24c-31.66,8.51-58.21-7-66.74-38.61q-35-129.55-70.1-259.11C26,530.06,25.6,528.6,25.07,526.5Zm386.59,85.24c-3.33-5.27-6.08-9.6-8.82-14q-10.63-16.92-21.26-33.85c-2.11-3.36-4.95-5.61-9.13-4.51s-6.06,4.36-6.15,8.64c0,.67-.09,1.33-.12,2q-1.46,35.21-2.93,70.4c-.2,4.49-.64,9-1.05,14.55-1-1.63-1.31-2.18-1.61-2.75l-41.94-79.53Q310,556.38,301.43,540c-2-3.76-5-5.91-9.38-4.86-4.18,1-5.8,4.12-6.06,8.14-.07,1.16-.07,2.33-.08,3.49q-.33,42.5-.67,85c0,1.18-.27,2.36-.52,4.4-7.91-10.69-15.32-20.51-22.48-30.51-2.63-3.67-5.48-6.48-10.28-5.27s-5.59,5.23-6.28,9.27c-1.42,8.2-2.9,16.38-4.2,24.59-.44,2.79-1.64,4.28-4.51,5-8.39,2.09-16.73,4.41-25,6.79-5.69,1.63-8.22,5.19-7.14,9.58,1.21,4.86,5.58,7,11.56,5.4,10.62-2.82,21.18-5.85,31.81-8.61,4.43-1.15,6.77-3.77,7.48-8.24.84-5.31,1.92-10.58,3.09-16.88,8.4,11.35,16.11,21.77,23.83,32.18,1.09,1.48,2.17,2.95,3.27,4.42,2.27,3,5,4.86,9,3.65s5.75-4.16,5.79-8.29q.34-33.74.73-67.46c.05-5.34,0-10.67,0-16,9.18,15.1,17.19,30.25,25.2,45.4q17.38,32.89,34.73,65.82c2.07,3.94,4.88,6.56,9.52,5.41,4.27-1.06,5.84-4.27,6-8.64,1-23.62,2.08-47.24,3.17-70.86.29-6.22.66-12.44,1.07-19.93,1.61,2.32,2.56,3.59,3.41,4.93,7.4,11.68,14.81,23.35,22.13,35.07,2,3.18,4.39,5.65,8.36,5.2,4.19-.48,6.09-3.51,7.21-7.3,2.42-8.13,4.82-16.27,7.62-24.26a8,8,0,0,1,4.46-4.32c6.63-2.18,13.45-3.78,20.18-5.68,5.92-1.67,8.4-5.17,7.24-10-1.09-4.54-5.55-6.69-11.15-5.2-8.84,2.34-17.63,4.83-26.48,7.14a9.81,9.81,0,0,0-7.65,7.65C415.13,601,413.51,605.73,411.66,611.74Z"/><path d="M530,301.6c3,12.2,6.87,23.65,8.32,35.41,2.23,17.95-8.53,32.6-26.1,37.39Q429.42,397,346.53,419.25L39.67,502.19c-6.39,1.73-12.79,3.43-19.83,5.31C14.1,486.39,8.44,465.6,2.6,444.17c6.69-1.87,13-3.69,19.35-5.4,24.1-6.51,48.19-13,72.33-19.41a10.63,10.63,0,0,0,7.12-5.48Q161.52,309,222,204.27a13.89,13.89,0,0,1,7-5.6C322.77,166,426.68,218.19,456.6,312.91c.75,2.36,1.53,4.7,2.5,7.7Zm-239.7-83.77c-1.76,20.74-3.45,40.51-5.14,60.41,28.64,1.92,51.86,13.08,70.61,34l47.51-37.6C373.21,240,336.16,221.2,290.31,217.83ZM260.13,374.36c-.65-17.72,5.08-28.74,17.73-32.12a38.21,38.21,0,0,1,17.54,0c9.1,2,14,9.43,17.64,17.85l29.53-7.89c-6.47-21-19.71-34.63-39.95-40.41-23.26-6.65-43.66-.33-59.58,17.71-13.25,15-17.37,32.77-12.25,52.83ZM94.55,478.85c1.21.24,1.57.43,1.85.35,20.07-5.39,40.15-10.74,60.18-16.31a9,9,0,0,0,4.74-3.83c10.84-18.35,21.5-36.79,32.18-55.22a36.82,36.82,0,0,0,1.7-4c-1.73.36-2.69.51-3.62.76-18.78,5.09-37.52,10.3-56.34,15.19a11.65,11.65,0,0,0-7.82,6.14c-8.58,15-17.34,30-26,44.95C99.16,470.78,97,474.65,94.55,478.85Zm402.9-160.49c-2.37.46-3.33.59-4.27.84-19.27,5.16-38.57,10.23-57.76,15.65-2.21.62-4.46,2.85-5.69,4.93-10.45,17.6-20.68,35.34-31,53.05-.8,1.36-1.47,2.79-2.46,4.71a18.21,18.21,0,0,0,2.61-.21C419,392,439.07,386.61,459.1,381.07c1.51-.41,3-2,3.87-3.47,4.32-7.11,8.44-14.35,12.62-21.55ZM245.12,438.41a25.54,25.54,0,0,0,3-.27c19.72-5.31,39.47-10.56,59.13-16.1a10.37,10.37,0,0,0,5.35-4.52c10.68-18,21.17-36.16,31.68-54.29a43,43,0,0,0,1.8-4.07c-1.69.41-2.61.6-3.52.85-18,4.79-35.91,9.74-54,14.3-5.37,1.36-9.12,3.77-11.52,8.94s-5.73,10.13-8.66,15.16ZM48.72,460.75a12.83,12.83,0,0,0-12.66-12.69A12.67,12.67,0,0,0,23.5,460.75a12.53,12.53,0,0,0,12.55,12.66A12.8,12.8,0,0,0,48.72,460.75Z"/><path d="M0,427.49c8.89-15.52,17.14-30,25.42-44.38Q115.51,226.29,205.61,69.47c9.54-16.61,19-33.24,28.65-49.81C244.37,2.22,264.65-4.79,283,3.43c9.52,4.26,18.43,9.87,27.89,15-11.52,20-22.78,39.66-34,59.27Q215.17,185.17,153.46,292.61,122.6,346.33,91.61,400a8.2,8.2,0,0,1-4.18,3.73C58.78,411.61,30.07,419.34,0,427.49ZM295,30.62c-2.93.7-4.82,1.08-6.68,1.59-19.37,5.35-38.77,10.61-58.07,16.22a12.47,12.47,0,0,0-6.62,5.1C215,68,206.8,82.63,198.48,97.22c-2,3.41-3.9,6.84-6.27,11,1.65-.31,2.41-.39,3.14-.59,20.64-5.71,41.31-11.34,61.9-17.28a11.72,11.72,0,0,0,6.31-4.75c9-15.16,17.64-30.52,26.39-45.83C291.49,37.09,292.93,34.34,295,30.62ZM216.73,166.9c-.7-.2-1-.43-1.3-.36-21.61,6-43.23,11.85-64.79,18-1.77.51-3.55,2.39-4.53,4.09-9.7,16.67-19.23,33.44-28.8,50.19-.78,1.36-1.52,2.74-2.7,4.87a32.34,32.34,0,0,0,3.32-.42c21-5.77,42-11.49,62.91-17.48,1.92-.54,3.84-2.56,4.9-4.39,9.79-16.81,19.39-33.72,29-50.62C215.48,169.55,216.06,168.25,216.73,166.9ZM36.41,380c22.81-6.35,44.1-12.17,65.3-18.33a12.52,12.52,0,0,0,6.57-5.21c8.86-14.88,17.39-30,26-45,1.62-2.83,3.12-5.73,5.09-9.37-2.22.4-3.5.53-4.73.87-17,4.68-33.86,9.93-51,13.87-9.72,2.22-15.81,6.86-20.37,15.8C55.22,348.29,45.93,363.31,36.41,380Z"/><path d="M399.1,174.26c-8.32-.16-11.79-6.41-8.59-12.31,5.23-9.64,10.72-19.15,16.11-28.71,3.18-5.65,6.3-11.34,9.55-17,2.87-4.94,7.49-6.39,11.73-3.85,3.92,2.35,4.91,7,2.21,11.83-8.36,15-16.7,29.92-25.36,44.7C403.26,171.51,400.28,173.19,399.1,174.26Z"/><path d="M474,154.6c2.2,2.34,5.26,4.33,6.39,7.11,1.62,4-.61,7.35-4.4,9.46q-18.5,10.31-37,20.64a49.35,49.35,0,0,1-5.31,2.74,7.71,7.71,0,0,1-10.14-3.68c-1.87-4-1.16-7.9,2.59-10.07,14.37-8.32,28.93-16.31,43.44-24.38a16.37,16.37,0,0,1,3.3-1Z"/><path d="M368.23,151.16c-.06,5.22-2.8,8.43-7,8.9a7.6,7.6,0,0,1-8.58-6.57q-3.57-24.36-6.75-48.78c-.54-4.13,2.81-7.84,6.89-8.4a7.53,7.53,0,0,1,8.92,6.66c1.88,12.13,3.37,24.33,5,36.5C367.24,143.58,367.77,147.7,368.23,151.16Z"/><path class="cls-1" d="M411.66,611.74c1.85-6,3.47-10.72,4.72-15.53a9.81,9.81,0,0,1,7.65-7.65c8.85-2.31,17.64-4.8,26.48-7.14,5.6-1.49,10.06.66,11.15,5.2,1.16,4.84-1.32,8.34-7.24,10-6.73,1.9-13.55,3.5-20.18,5.68a8,8,0,0,0-4.46,4.32c-2.8,8-5.2,16.13-7.62,24.26-1.12,3.79-3,6.82-7.21,7.3-4,.45-6.38-2-8.36-5.2-7.32-11.72-14.73-23.39-22.13-35.07-.85-1.34-1.8-2.61-3.41-4.93-.41,7.49-.78,13.71-1.07,19.93-1.09,23.62-2.21,47.24-3.17,70.86-.18,4.37-1.75,7.58-6,8.64-4.64,1.15-7.45-1.47-9.52-5.41Q344,654.07,326.54,621.19c-8-15.15-16-30.3-25.2-45.4,0,5.33,0,10.66,0,16q-.34,33.72-.73,67.46c0,4.13-1.71,7-5.79,8.29s-6.71-.64-9-3.65c-1.1-1.47-2.18-2.94-3.27-4.42-7.72-10.41-15.43-20.83-23.83-32.18-1.17,6.3-2.25,11.57-3.09,16.88-.71,4.47-3,7.09-7.48,8.24-10.63,2.76-21.19,5.79-31.81,8.61-6,1.59-10.35-.54-11.56-5.4-1.08-4.39,1.45-8,7.14-9.58,8.31-2.38,16.65-4.7,25-6.79,2.87-.71,4.07-2.2,4.51-5,1.3-8.21,2.78-16.39,4.2-24.59.69-4,1.63-8.09,6.28-9.27s7.65,1.6,10.28,5.27c7.16,10,14.57,19.82,22.48,30.51.25-2,.51-3.22.52-4.4q.36-42.48.67-85c0-1.16,0-2.33.08-3.49.26-4,1.88-7.15,6.06-8.14,4.42-1,7.39,1.1,9.38,4.86q8.64,16.34,17.22,32.7l41.94,79.53c.3.57.65,1.12,1.61,2.75.41-5.58.85-10.06,1.05-14.55q1.51-35.19,2.93-70.4c0-.66.1-1.32.12-2,.09-4.28,1.86-7.51,6.15-8.64s7,1.15,9.13,4.51q10.65,16.92,21.26,33.85C405.58,602.14,408.33,606.47,411.66,611.74Z"/><path class="cls-1" d="M290.31,217.83c45.85,3.37,82.9,22.2,113,56.83l-47.51,37.6c-18.75-20.94-42-32.1-70.61-34C286.86,258.34,288.55,238.57,290.31,217.83Z"/><path class="cls-1" d="M260.13,374.36l-29.34,8c-5.12-20.06-1-37.83,12.25-52.83,15.92-18,36.32-24.36,59.58-17.71,20.24,5.78,33.48,19.4,39.95,40.41L313,360.08c-3.62-8.42-8.54-15.82-17.64-17.85a38.21,38.21,0,0,0-17.54,0C265.21,345.62,259.48,356.64,260.13,374.36Z"/><path class="cls-1" d="M94.55,478.85c2.4-4.2,4.61-8.07,6.85-11.93,8.68-15,17.44-29.91,26-44.95a11.65,11.65,0,0,1,7.82-6.14c18.82-4.89,37.56-10.1,56.34-15.19.93-.25,1.89-.4,3.62-.76a36.82,36.82,0,0,1-1.7,4c-10.68,18.43-21.34,36.87-32.18,55.22a9,9,0,0,1-4.74,3.83c-20,5.57-40.11,10.92-60.18,16.31C96.12,479.28,95.76,479.09,94.55,478.85Z"/><path class="cls-1" d="M497.45,318.36l-21.86,37.69c-4.18,7.2-8.3,14.44-12.62,21.55-.88,1.44-2.36,3.06-3.87,3.47-20,5.54-40.1,10.89-60.17,16.26a18.21,18.21,0,0,1-2.61.21c1-1.92,1.66-3.35,2.46-4.71,10.27-17.71,20.5-35.45,31-53.05,1.23-2.08,3.48-4.31,5.69-4.93,19.19-5.42,38.49-10.49,57.76-15.65C494.12,319,495.08,318.82,497.45,318.36Z"/><path class="cls-1" d="M245.12,438.41l23.29-40c2.93-5,6.22-9.9,8.66-15.16s6.15-7.58,11.52-8.94c18-4.56,36-9.51,54-14.3.91-.25,1.83-.44,3.52-.85a43,43,0,0,1-1.8,4.07c-10.51,18.13-21,36.27-31.68,54.29a10.37,10.37,0,0,1-5.35,4.52c-19.66,5.54-39.41,10.79-59.13,16.1A25.54,25.54,0,0,1,245.12,438.41Z"/><path class="cls-1" d="M48.72,460.75a12.8,12.8,0,0,1-12.67,12.66A12.53,12.53,0,0,1,23.5,460.75a12.67,12.67,0,0,1,12.56-12.69A12.83,12.83,0,0,1,48.72,460.75Z"/><path class="cls-1" d="M295,30.62c-2,3.72-3.47,6.47-5,9.16-8.75,15.31-17.4,30.67-26.39,45.83a11.72,11.72,0,0,1-6.31,4.75c-20.59,5.94-41.26,11.57-61.9,17.28-.73.2-1.49.28-3.14.59,2.37-4.17,4.31-7.6,6.27-11C206.8,82.63,215,68,223.59,53.53a12.47,12.47,0,0,1,6.62-5.1c19.3-5.61,38.7-10.87,58.07-16.22C290.14,31.7,292,31.32,295,30.62Z"/><path class="cls-1" d="M216.73,166.9c-.67,1.35-1.25,2.65-1.95,3.88-9.65,16.9-19.25,33.81-29,50.62-1.06,1.83-3,3.85-4.9,4.39-20.92,6-41.92,11.71-62.91,17.48a32.34,32.34,0,0,1-3.32.42c1.18-2.13,1.92-3.51,2.7-4.87,9.57-16.75,19.1-33.52,28.8-50.19,1-1.7,2.76-3.58,4.53-4.09,21.56-6.15,43.18-12,64.79-18C215.69,166.47,216,166.7,216.73,166.9Z"/><path class="cls-1" d="M36.41,380c9.52-16.65,18.81-31.67,26.82-47.36,4.56-8.94,10.65-13.58,20.37-15.8,17.17-3.94,34-9.19,51-13.87,1.23-.34,2.51-.47,4.73-.87-2,3.64-3.47,6.54-5.09,9.37-8.6,15-17.13,30.11-26,45a12.52,12.52,0,0,1-6.57,5.21C80.51,367.79,59.22,373.61,36.41,380Z"/></g></g></svg>